<svg id="visual" viewBox="0 0 540 960" width="540" height="960" xmlns="http://www.w3.org/2000/svg" xmlns:xlink="http://www.w3.org/1999/xlink" version="1.1"><rect x="0" y="0" width="540" height="960" fill="#Fff"></rect><defs><linearGradient id="grad1_0" x1="0%" y1="0%" x2="100%" y2="100%"><stop offset="30%" stop-color="#ffffff" stop-opacity="1"></stop><stop offset="70%" stop-color="#ffffff" stop-opacity="1"></stop></linearGradient></defs><defs><linearGradient id="grad2_0" x1="0%" y1="0%" x2="100%" y2="100%"><stop offset="30%" stop-color="#ffffff" stop-opacity="1"></stop><stop offset="70%" stop-color="#ffffff" stop-opacity="1"></stop></linearGradient></defs><g transform="translate(540, 0)"><path d="M0 324C-46.5 324 -93 324 -124 299.3C-155 274.7 -170.5 225.4 -190.9 190.9C-211.3 156.5 -236.6 136.9 -259.6 107.5C-282.6 78.2 -303.3 39.1 -324 0L0 0Z" fill="#211c84"></path></g><g transform="translate(0, 960)"><path d="M0 -324C31.9 -296.7 63.8 -269.4 107.2 -258.7C150.5 -247.9 205.2 -253.7 229.1 -229.1C253 -204.5 246.2 -149.6 256.8 -106.4C267.5 -63.1 295.8 -31.6 324 0L0 0Z" fill="#211c84"></path></g></svg>