<svg id="visual" viewBox="0 0 900 600" width="900" height="600" xmlns="http://www.w3.org/2000/svg" xmlns:xlink="http://www.w3.org/1999/xlink" version="1.1"><rect x="0" y="0" width="900" height="600" fill="#Fff"></rect><defs><linearGradient id="grad1_0" x1="33.3%" y1="0%" x2="100%" y2="100%"><stop offset="20%" stop-color="#ffffff" stop-opacity="1"></stop><stop offset="80%" stop-color="#ffffff" stop-opacity="1"></stop></linearGradient></defs><defs><linearGradient id="grad2_0" x1="0%" y1="0%" x2="66.7%" y2="100%"><stop offset="20%" stop-color="#ffffff" stop-opacity="1"></stop><stop offset="80%" stop-color="#ffffff" stop-opacity="1"></stop></linearGradient></defs><g transform="translate(900, 0)"><path d="M0 378.6C-42.5 357 -85 335.4 -132.8 320.6C-180.5 305.7 -233.5 297.6 -267.7 267.7C-301.9 237.8 -317.2 186 -332.6 137.8C-347.9 89.5 -363.3 44.8 -378.6 0L0 0Z" fill="#7a73d1"></path></g><g transform="translate(0, 600)"><path d="M0 -378.6C40.1 -349.3 80.2 -320 126.3 -304.9C172.3 -289.7 224.4 -288.7 264.5 -264.5C304.6 -240.2 332.7 -192.8 349.8 -144.9C366.8 -96.9 372.7 -48.5 378.6 0L0 0Z" fill="#7a73d1"></path></g></svg>